# xmcd
#
# Track frame offsets:
# 150
# 12840
# 28880
# 48025
# 64295
# 79850
# 107110
# 123215
# 141575
# 156437
# 172285
# 185372
# 203250
# 234052
# 250195
#
# Disc length: 3441 seconds
#
#
# Revision: 0
# Processed by: cddbd v1.5.1PL0 Copyright (c) Steve Scherf et al.
# Submitted via: FreeRIP 2.53 
#
DISCID=c70d6f0f
DTITLE=Martin Schok and Silvan Zingg - Double Up Boogie
DYEAR=1999
DGENRE=Instrumental
TTITLE0=MFP Boogie
TTITLE1=The Boogaloo
TTITLE2=Basstalk
TTITLE3=Blue Monk
TTITLE4=Boogie For Big Hand Tom
TTITLE5=After Hours
TTITLE6=Organ Grinder's Swing
TTITLE7=Chicago In Mind
TTITLE8=12th Street Rag
TTITLE9=Bass Goin' Crazy
TTITLE10=Dialogue Boogie
TTITLE11=Peter Gunn Theme
TTITLE12=Latin Job
TTITLE13=Green Onions
TTITLE14=Double Up Boogie
EXTD=Oldie Blues DLGD 7113
EXTT0=
EXTT1=
EXTT2=
EXTT3=
EXTT4=
EXTT5=
EXTT6=
EXTT7=
EXTT8=
EXTT9=
EXTT10=
EXTT11=
EXTT12=
EXTT13=
EXTT14=
PLAYORDER=
